<?xml version="1.0" standalone="no"?>
<!DOCTYPE svg PUBLIC "-//W3C//DTD SVG 20010904//EN"
 "http://www.w3.org/TR/2001/REC-SVG-20010904/DTD/svg10.dtd">
<svg version="1.0" xmlns="http://www.w3.org/2000/svg"
 width="152.000000pt" height="152.000000pt" viewBox="0 0 152.000000 152.000000"
 preserveAspectRatio="xMidYMid meet">
<metadata>
Created by potrace 1.14, written by Peter Selinger 2001-2017
</metadata>
<g transform="translate(0.000000,152.000000) scale(0.100000,-0.100000)"
fill="#000000" stroke="none">
<path d="M271 1311 c-54 -29 -137 -118 -170 -185 -55 -108 -77 -276 -51 -391
29 -129 80 -201 225 -320 68 -55 140 -91 223 -111 61 -14 392 -20 392 -6 0 4
-33 6 -72 5 l-73 -3 51 19 c31 11 82 19 135 20 268 6 385 40 459 134 44 55 59
164 30 217 -17 31 -11 35 15 10 49 -46 63 -154 30 -225 -36 -73 -143 -142
-232 -147 -5 0 -18 -4 -29 -8 -12 -5 -76 -10 -143 -11 -66 -2 -121 -7 -121
-11 0 -13 236 1 308 17 122 28 214 97 239 179 15 50 10 126 -13 172 -28 57
-130 118 -200 118 -48 0 -53 3 -70 34 -10 18 -36 43 -57 55 -21 12 -53 30 -70
39 -53 30 -141 17 -175 -25 -12 -14 -17 -12 -45 25 -39 51 -124 104 -182 113
-53 7 -117 -8 -167 -41 -40 -25 -87 -91 -89 -121 0 -14 -2 -15 -6 -3 -3 8 -23
31 -45 51 -39 34 -41 38 -45 106 -6 80 8 155 43 225 14 27 20 49 14 53 -5 3
-28 -4 -51 -16 l-42 -21 22 36 c26 41 16 46 -38 17z m81 -68 c-17 -34 -27 -63
-39 -113 -7 -31 -7 -136 1 -165 l8 -30 -26 24 c-33 31 -43 69 -40 141 5 87 21
132 57 157 49 34 61 29 39 -14z m496 -338 c16 -22 21 -41 17 -54 -9 -29 -24
-26 -30 7 -4 15 -13 41 -20 59 -19 42 1 35 33 -12z m-469 -14 c7 -5 17 -27 21
-49 6 -37 5 -40 -13 -36 -33 6 -41 20 -38 72 1 24 8 27 30 13z m815 -81 c14
-24 17 -37 9 -49 -10 -16 -22 -18 -24 -3 -1 4 -7 26 -14 50 -16 52 -1 53 29 2z
m-744 -460 c25 -7 112 -13 194 -13 141 -2 147 -2 105 -15 -48 -15 -185 -20
-237 -9 -41 9 -142 47 -142 53 0 3 8 3 18 0 9 -3 37 -10 62 -16z"/>
<path d="M900 298 c0 -4 7 -8 15 -8 8 0 15 4 15 8 0 5 -7 9 -15 9 -8 0 -15 -4
-15 -9z"/>
</g>
</svg>
